<?xml version="1.0" encoding="UTF-8" standalone="no"?>
<svg
   version="1.2"
   viewBox="0 0 1518.8 434.39999"
   width="1518.8"
   height="434.39999"
   id="svg1"
   sodipodi:docname="ICCC.svg"
   inkscape:version="1.3.1 (91b66b0783, 2023-11-16)"
   xmlns:inkscape="http://www.inkscape.org/namespaces/inkscape"
   xmlns:sodipodi="http://sodipodi.sourceforge.net/DTD/sodipodi-0.dtd"
   xmlns="http://www.w3.org/2000/svg"
   xmlns:svg="http://www.w3.org/2000/svg"
   xmlns:rdf="http://www.w3.org/1999/02/22-rdf-syntax-ns#"
   xmlns:cc="http://creativecommons.org/ns#"
   xmlns:dc="http://purl.org/dc/elements/1.1/">
  <defs
     id="defs1" />
  <sodipodi:namedview
     id="namedview1"
     pagecolor="#ffffff"
     bordercolor="#000000"
     borderopacity="0.25"
     inkscape:showpageshadow="2"
     inkscape:pageopacity="0.0"
     inkscape:pagecheckerboard="0"
     inkscape:deskcolor="#d1d1d1"
     inkscape:zoom="0.22662486"
     inkscape:cx="1041.3686"
     inkscape:cy="1264.2038"
     inkscape:window-width="1920"
     inkscape:window-height="991"
     inkscape:window-x="-9"
     inkscape:window-y="-9"
     inkscape:window-maximized="1"
     inkscape:current-layer="svg1" />
  <title
     id="title1">Neues Projekt2</title>
  <style
     id="style1">
		.s0 { fill: #000000 } 
	</style>
  <path
     id="ICCC"
     class="s0"
     aria-label="ICCC"
     d="m 0,427.2 h 97.8 l 84,-420 H 84 Z m 448.4,7.2 c 73.2,0 133.8,-26.4 173.4,-75 l -62.4,-57.6 c -28.2,33 -63.6,49.8 -105.6,49.8 -78.6,0 -134.4,-55.2 -134.4,-134.4 0,-79.2 55.8,-134.4 134.4,-134.4 42,0 77.4,16.8 105.6,49.2 L 621.8,74.4 C 582.2,26.4 521.6,0 449,0 318.2,0 221,90.6 221,217.2 c 0,126.6 97.2,217.2 227.4,217.2 z m 449,0 c 73.2,0 133.8,-26.4 173.4,-75 l -62.4,-57.6 c -28.2,33 -63.6,49.8 -105.6,49.8 -78.6,0 -134.4,-55.2 -134.4,-134.4 0,-79.2 55.8,-134.4 134.4,-134.4 42,0 77.4,16.8 105.6,49.2 l 62.4,-57.6 C 1031.2,26.4 970.6,0 898,0 767.2,0 670,90.6 670,217.2 c 0,126.6 97.2,217.2 227.4,217.2 z m 448,0 c 73.2,0 133.8,-26.4 173.4,-75 l -62.4,-57.6 c -28.2,33 -63.6,49.8 -105.6,49.8 -78.6,0 -134.4,-55.2 -134.4,-134.4 0,-79.2 55.8,-134.4 134.4,-134.4 42,0 77.4,16.8 105.6,49.2 l 62.4,-57.6 C 1479.2,26.4 1418.6,0 1346,0 c -130.8,0 -228,90.6 -228,217.2 0,126.6 97.2,217.2 227.4,217.2 z"
     style="fill:#ffffff;fill-opacity:1;stroke:none" />
  <path
     id="ICCCI   "
     class="s0"
     aria-label="ICCCI   "
     d="m -75.7,2651.2 h 48.9 l 42,-210 h -48.9 z m 223.7,3.6 c 36.6,0 66.9,-13.2 86.7,-37.5 l -31.2,-28.8 c -14.1,16.5 -31.8,24.9 -52.8,24.9 -39.3,0 -67.2,-27.6 -67.2,-67.2 0,-39.6 27.9,-67.2 67.2,-67.2 21,0 38.7,8.4 52.8,24.6 l 31.2,-28.8 c -19.8,-24 -50.1,-37.2 -86.4,-37.2 -65.4,0 -114,45.3 -114,108.6 0,63.3 48.6,108.6 113.7,108.6 z m 225,0 c 36.6,0 66.9,-13.2 86.7,-37.5 l -31.2,-28.8 c -14.1,16.5 -31.8,24.9 -52.8,24.9 -39.3,0 -67.2,-27.6 -67.2,-67.2 0,-39.6 27.9,-67.2 67.2,-67.2 21,0 38.7,8.4 52.8,24.6 l 31.2,-28.8 c -19.8,-24 -50.1,-37.2 -86.4,-37.2 -65.4,0 -114,45.3 -114,108.6 0,63.3 48.6,108.6 113.7,108.6 z m 224,0 c 36.6,0 66.9,-13.2 86.7,-37.5 l -31.2,-28.8 c -14.1,16.5 -31.8,24.9 -52.8,24.9 -39.3,0 -67.2,-27.6 -67.2,-67.2 0,-39.6 27.9,-67.2 67.2,-67.2 21,0 38.7,8.4 52.8,24.6 l 31.2,-28.8 c -19.8,-24 -50.1,-37.2 -86.4,-37.2 -65.4,0 -114,45.3 -114,108.6 0,63.3 48.6,108.6 113.7,108.6 z m 127.9,-3.6 h 6 l 42,-210 h -6 z"
     style="stroke:none" />
  <path
     id="IMPERIAL COLLEGE CYCLING CLUB"
     class="s0"
     aria-label="IMPERIAL COLLEGE CYCLING CLUB"
     d="m 794.8,2527.2 h 11.6 v -86.8 h -11.6 z m 125.5,0 -0.1,-86.8 h -9.5 l -33.5,61 -33.9,-61 h -9.5 v 86.8 h 11.1 v -62.9 l 29.4,52.4 h 5.4 l 29.3,-52.8 0.2,63.3 z m 60.1,-86.8 h -31.7 v 86.8 h 11.7 v -26.3 h 20 c 21.2,0 34,-11.4 34,-30.3 0,-18.8 -12.8,-30.2 -34,-30.2 z m -0.3,49.7 h -19.7 v -38.9 h 19.7 c 14.9,0 22.6,7 22.6,19.4 0,12.4 -7.7,19.5 -22.6,19.5 z m 66.3,26.3 v -28 h 40.7 v -10.6 h -40.7 v -26.6 h 45.7 v -10.8 h -57.4 v 86.8 h 59 v -10.8 z m 136.4,10.8 -19.3,-29.1 c 11.4,-4.4 17.9,-14.1 17.9,-27.5 0,-18.8 -12.7,-30.2 -33.9,-30.2 h -31.7 v 86.8 h 11.6 v -26.4 h 20.1 c 1.8,0 3.5,-0.1 5.1,-0.3 l 17.6,26.7 z m -35.7,-37 h -19.7 v -39 h 19.7 c 14.9,0 22.7,7 22.7,19.4 0,12.4 -7.8,19.6 -22.7,19.6 z m 56.7,37 h 11.6 v -86.8 h -11.6 z m 100.7,0 h 12.2 l -36.9,-86.8 h -11.5 l -36.8,86.8 h 11.9 l 9,-21.7 h 43.2 z m -48.1,-31.6 17.5,-42.6 17.5,42.6 z m 75.4,31.6 h 55.6 v -10.8 h -44 v -76 h -11.6 z m 143.3,1 c 12.7,0 23.6,-4.7 31,-13.7 l -7.5,-7.8 c -6.3,7.1 -13.9,10.4 -22.9,10.4 -18.3,0 -31.9,-14.1 -31.9,-33.3 0,-19.2 13.6,-33.4 31.9,-33.4 9,0 16.6,3.2 22.9,10.3 l 7.5,-7.8 c -7.4,-8.9 -18.3,-13.5 -30.8,-13.5 -24.8,0 -43.1,18.7 -43.1,44.4 0,25.6 18.3,44.4 42.9,44.4 z m 86.4,0 c 24.7,0 43.1,-18.9 43.1,-44.4 0,-25.6 -18.4,-44.4 -43.1,-44.4 -25,0 -43.3,18.9 -43.3,44.4 0,25.4 18.3,44.4 43.3,44.4 z m 0,-11.1 c -18.2,0 -31.7,-14.1 -31.7,-33.3 0,-19.2 13.5,-33.4 31.7,-33.4 18,0 31.5,14.2 31.5,33.4 0,19.2 -13.5,33.3 -31.5,33.3 z m 64.3,10.1 h 55.6 v -10.8 h -44 v -76 h -11.6 z m 73,0 h 55.6 v -10.8 h -44 v -76 h -11.6 z m 83.6,-10.8 v -28.1 h 40.8 v -10.5 h -40.8 v -26.7 h 45.8 v -10.7 h -57.4 v 86.8 h 59 v -10.8 z m 125.7,-4.9 c -5.8,4 -12.2,5.6 -19.1,5.6 -18.7,0 -32.2,-14.2 -32.2,-33.3 0,-19.4 13.5,-33.4 32.4,-33.4 9.1,0 16.8,3.1 23.5,10 l 7.2,-7.6 c -7.4,-8.9 -18.3,-13.4 -31.2,-13.4 -25.2,0 -43.6,18.7 -43.6,44.4 0,25.6 18.4,44.4 43.4,44.4 11.3,0 22.6,-3.8 30.7,-11.1 v -33.8 h -11.1 z m 48.3,4.8 v -28 h 40.7 v -10.6 h -40.7 v -26.6 h 45.7 v -10.8 h -57.3 v 86.8 h 59 v -10.8 z M 831.1,2651.1 c 12.6,0 23.6,-4.7 31,-13.7 l -7.6,-7.8 c -6.2,7.1 -13.9,10.4 -22.8,10.4 -18.4,0 -32,-14.1 -32,-33.3 0,-19.2 13.6,-33.4 32,-33.4 8.9,0 16.6,3.2 22.8,10.3 l 7.6,-7.8 c -7.4,-8.9 -18.4,-13.5 -30.9,-13.5 -24.7,0 -43.1,18.7 -43.1,44.4 0,25.7 18.4,44.4 43,44.4 z m 113,-87.8 h -11.5 l -26.1,45.7 -26,-45.7 h -12.4 l 32.3,56.5 v 30.3 h 11.5 v -30 z m 47.9,87.8 c 12.7,0 23.6,-4.7 31,-13.7 l -7.5,-7.8 c -6.3,7.1 -14,10.4 -22.9,10.4 -18.4,0 -31.9,-14.1 -31.9,-33.3 0,-19.2 13.5,-33.4 31.9,-33.4 8.9,0 16.6,3.2 22.9,10.3 l 7.5,-7.8 c -7.4,-8.9 -18.3,-13.5 -30.9,-13.5 -24.7,0 -43.1,18.7 -43.1,44.4 0,25.6 18.4,44.4 43,44.4 z m 51.7,-1 h 55.6 v -10.8 h -44 v -76 h -11.6 z m 72,0 h 11.6 v -86.8 h -11.6 z m 98.3,-86.8 v 64.7 l -48.8,-64.7 h -9.5 v 86.8 h 11.6 v -64.8 l 48.7,64.8 h 9.6 v -86.8 z m 95,71.1 c -5.8,4 -12.2,5.6 -19.1,5.6 -18.6,0 -32.2,-14.2 -32.2,-33.3 0,-19.4 13.6,-33.4 32.4,-33.4 9.1,0 16.8,3.1 23.5,10.1 l 7.2,-7.7 c -7.4,-8.8 -18.3,-13.4 -31.2,-13.4 -25.2,0 -43.5,18.7 -43.5,44.4 0,25.6 18.3,44.4 43.3,44.4 11.3,0 22.6,-3.8 30.7,-11.1 v -33.8 H 1309 Z m 108,16.6 c 12.7,0 23.6,-4.7 31,-13.7 l -7.5,-7.8 c -6.3,7.1 -14,10.4 -22.9,10.4 -18.3,0 -31.9,-14.1 -31.9,-33.3 0,-19.2 13.6,-33.4 31.9,-33.4 8.9,0 16.6,3.3 22.9,10.3 l 7.5,-7.8 c -7.4,-8.9 -18.3,-13.5 -30.9,-13.5 -24.7,0 -43,18.7 -43,44.4 0,25.7 18.3,44.4 42.9,44.4 z m 51.7,-1 h 55.6 v -10.8 h -44 v -76 h -11.6 z m 104.6,1 c 21.5,0 34.4,-13.3 34.4,-38.5 v -49.3 h -11.2 v 48.8 c 0,19.3 -8.4,27.9 -23,27.9 -14.7,0 -22.9,-8.6 -22.9,-27.9 v -48.8 H 1539 v 49.3 c 0,25.2 13,38.5 34.3,38.5 z m 116.1,-46 c 6.4,-3.4 10.9,-10 10.9,-19.4 0,-14 -10.5,-22.4 -29.2,-22.4 h -36.4 v 86.8 h 38.8 c 20.5,0 31.1,-8.6 31.1,-23.5 0,-11.5 -6.1,-18.8 -15.2,-21.5 z m -19.3,-31.8 c 11.8,0 18.6,4.7 18.6,13.9 0,9.2 -6.8,13.9 -18.6,13.9 h -23.8 v -27.8 z m 2.9,66.7 h -26.7 V 2611 h 26.7 c 12.9,0 19.8,4.5 19.8,14.6 0,10 -6.9,14.3 -19.8,14.3 z"
     style="stroke:none" />
  <path
     id="IMPERIAL COLLEGE CYCLING CLUB  "
     class="s0"
     aria-label="IMPERIAL COLLEGE CYCLING CLUB  "
     d="m 465.6,1592.2 h 20.8 v -112 h -20.8 z m 173.6,0 -0.2,-112 h -17.1 l -43.7,74.2 -44.4,-74.2 h -17.2 v 112 h 19.9 v -73.3 l 36.8,60.5 h 9.3 l 36.8,-61.4 0.1,74.2 z m 76.5,-112 h -46 v 112 h 20.8 v -32.3 h 25.2 c 29.5,0 47.7,-15.2 47.7,-39.9 0,-24.8 -18.2,-39.8 -47.7,-39.8 z m -0.9,62.1 h -24.3 v -44.5 h 24.3 c 18.2,0 27.7,8.2 27.7,22.2 0,14.1 -9.5,22.3 -27.7,22.3 z m 89.7,32.5 v -30.9 h 54 v -17.1 h -54 v -29.2 h 60.9 v -17.4 h -81.7 v 112 h 84 v -17.4 z m 182.8,17.4 -25.7,-36.8 c 15.2,-5.9 23.8,-18.4 23.8,-35.4 0,-24.8 -18.2,-39.8 -47.7,-39.8 h -46 v 112 h 20.8 v -32.6 h 25.2 c 1.5,0 2.9,0 4.4,-0.2 l 22.8,32.8 z M 964.5,1520 c 0,14.1 -9.5,22.4 -27.7,22.4 h -24.3 v -44.6 h 24.3 c 18.2,0 27.7,8.2 27.7,22.2 z m 44.2,72.2 h 20.8 v -112 h -20.8 z m 134.8,0 h 21.8 l -50.6,-112 h -20.5 l -50.4,112 h 21.5 l 11,-25.9 h 56 z m -60.2,-42.3 21,-48.9 21.1,48.9 z m 95.3,42.3 h 79.4 v -17.6 h -58.6 v -94.4 h -20.8 z m 191.9,1.6 c 18.4,0 34.1,-6.6 44.5,-18.7 l -13.5,-12.8 c -8.1,8.9 -18.2,13.2 -29.9,13.2 -23.2,0 -40,-16.3 -40,-39.3 0,-23.1 16.8,-39.4 40,-39.4 11.7,0 21.8,4.3 29.9,13.1 l 13.5,-12.6 c -10.4,-12.2 -26.1,-18.7 -44.4,-18.7 -34.4,0 -60,24.1 -60,57.6 0,33.4 25.6,57.6 59.9,57.6 z m 114.5,0 c 34.7,0 60.3,-24.3 60.3,-57.6 0,-33.3 -25.6,-57.6 -60.3,-57.6 -34.8,0 -60.4,24.5 -60.4,57.6 0,33.1 25.6,57.6 60.4,57.6 z m 0,-18.3 c -22.6,0 -39.4,-16.4 -39.4,-39.3 0,-22.9 16.8,-39.4 39.4,-39.4 22.5,0 39.3,16.5 39.3,39.4 0,22.9 -16.8,39.3 -39.3,39.3 z m 82.6,16.7 h 79.4 v -17.6 h -58.6 v -94.4 h -20.8 z m 96,0 h 79.4 v -17.6 h -58.6 v -94.4 h -20.8 z m 116.8,-17.5 v -30.8 h 54.1 v -17.2 h -54.1 v -29.1 h 61 v -17.4 h -81.8 v 112 h 84 v -17.5 z m 161.7,-4.9 c -7.2,4.1 -15,5.7 -23,5.7 -23.7,0 -40.5,-16.6 -40.5,-39.3 0,-23.2 16.8,-39.4 40.6,-39.4 12,0 22.1,4 30.9,12.8 l 13.1,-12.8 c -10.5,-12 -26.2,-18.2 -44.9,-18.2 -35.1,0 -60.7,24.1 -60.7,57.6 0,33.4 25.6,57.6 60.4,57.6 15.8,0 32.1,-4.8 43.8,-14.3 v -44.6 h -19.7 z m 68.3,5 v -30.9 h 54.1 v -17.1 h -54.1 v -29.2 h 61 v -17.4 h -81.8 v 112 h 84 v -17.4 z m -1492.9,179 c 18.4,0 34.1,-6.6 44.5,-18.7 l -13.5,-12.8 c -8.1,8.9 -18.2,13.3 -29.9,13.3 -23.2,0 -40,-16.4 -40,-39.4 0,-23 16.8,-39.4 40,-39.4 11.7,0 21.8,4.4 29.9,13.2 l 13.5,-12.7 c -10.4,-12.1 -26.1,-18.7 -44.4,-18.7 -34.4,0 -60,24.2 -60,57.6 0,33.4 25.6,57.6 59.9,57.6 z m 155.3,-113.6 h -20.5 l -33.1,54.6 -32.8,-54.6 h -22.2 l 44,72.8 v 39.2 H 629 v -39.5 z m 60.6,113.6 c 18.4,0 34.1,-6.6 44.5,-18.7 l -13.4,-12.8 c -8.2,8.9 -18.3,13.2 -29.9,13.2 -23.2,0 -40,-16.3 -40,-39.3 0,-23.1 16.8,-39.4 40,-39.4 11.6,0 21.7,4.3 29.9,13.1 l 13.4,-12.6 c -10.4,-12.2 -26.1,-18.7 -44.3,-18.7 -34.4,0 -60,24.1 -60,57.6 0,33.4 25.6,57.6 59.8,57.6 z m 64.2,-1.6 H 877 v -17.6 h -58.6 v -94.4 h -20.8 z m 96,0 h 20.8 v -112 h -20.8 z m 129.9,-112 v 75.8 l -61.8,-75.8 h -17.1 v 112 h 20.6 v -75.9 l 61.8,75.9 h 17.1 v -112 z m 126.6,89.6 c -7.2,4.1 -15,5.7 -23,5.7 -23.7,0 -40.5,-16.6 -40.5,-39.3 0,-23.2 16.8,-39.4 40.6,-39.4 12,0 22.1,4 30.9,12.8 l 13.1,-12.8 c -10.5,-12 -26.2,-18.2 -44.9,-18.2 -35.1,0 -60.7,24.1 -60.7,57.6 0,33.4 25.6,57.6 60.4,57.6 15.8,0 32.1,-4.8 43.8,-14.3 v -44.6 h -19.7 z m 143.4,24 c 18.4,0 34.1,-6.6 44.5,-18.7 l -13.5,-12.8 c -8.1,8.9 -18.2,13.3 -29.9,13.3 -23.2,0 -40,-16.4 -40,-39.4 0,-23 16.8,-39.4 40,-39.4 11.7,0 21.8,4.4 29.9,13.2 l 13.5,-12.7 c -10.4,-12.1 -26.1,-18.7 -44.4,-18.7 -34.4,0 -60,24.2 -60,57.6 0,33.4 25.6,57.6 59.9,57.6 z m 64.1,-1.6 h 79.4 v -17.6 h -58.6 v -94.4 h -20.8 z m 143.2,1.6 c 30.6,0 49,-17.8 49,-50.4 v -63.2 h -20.5 v 62.4 c 0,23 -10.3,33 -28.3,33 -18.1,0 -28.5,-10 -28.5,-33 v -62.4 h -20.8 v 63.2 c 0,32.6 18.4,50.4 49.1,50.4 z M 1658,1694 c 8.6,-4.7 14.4,-13.2 14.4,-24.7 0,-17.7 -14.4,-29.1 -41.3,-29.1 h -52.5 v 112 h 55.7 c 28.8,0 43.9,-11.2 43.9,-30.4 0,-14.6 -8.2,-24 -20.2,-27.8 z m -29.1,-37.5 c 14.4,0 22.5,5.1 22.5,15.5 0,10.3 -8.1,15.4 -22.5,15.4 h -29.5 v -30.9 z m 4.2,79.4 h -33.6 v -32.3 h 33.6 c 15.7,0 24.2,4.9 24.2,16.1 0,11.2 -8.5,16.2 -24.2,16.2 z"
     style="fill:#ffffff;fill-opacity:1;stroke:none" />
  <path
     id="I"
     class="s0"
     aria-label="I"
     d="m 377.1,1752.2 h 7.8 l 54.4,-272.1 h -7.8 z"
     style="fill:#ffffff;fill-opacity:1;stroke:none" />
  <metadata
     id="metadata1">
    <rdf:RDF>
      <cc:Work
         rdf:about="">
        <dc:title>Neues Projekt2</dc:title>
      </cc:Work>
    </rdf:RDF>
  </metadata>
</svg>
