<?xml version="1.0" encoding="UTF-8" standalone="no"?>
<svg
   class="fill-offBlack ..."
   width="2.7765443cm"
   viewBox="0 0 456.73998 47.96455"
   version="1.1"
   id="svg26"
   sodipodi:docname="unionlogo.svg"
   height="1.269062cm"
   inkscape:version="1.3.2 (091e20e, 2023-11-25, custom)"
   xmlns:inkscape="http://www.inkscape.org/namespaces/inkscape"
   xmlns:sodipodi="http://sodipodi.sourceforge.net/DTD/sodipodi-0.dtd"
   xmlns="http://www.w3.org/2000/svg"
   xmlns:svg="http://www.w3.org/2000/svg">
  <sodipodi:namedview
     id="namedview26"
     pagecolor="#ffffff"
     bordercolor="#000000"
     borderopacity="0.25"
     inkscape:showpageshadow="2"
     inkscape:pageopacity="0.0"
     inkscape:pagecheckerboard="0"
     inkscape:deskcolor="#d1d1d1"
     inkscape:zoom="17.014354"
     inkscape:cx="44.462458"
     inkscape:cy="36.028403"
     inkscape:window-width="3840"
     inkscape:window-height="2036"
     inkscape:window-x="-12"
     inkscape:window-y="-12"
     inkscape:window-maximized="1"
     inkscape:current-layer="svg26"
     inkscape:document-units="cm" />
  <g
     clip-path="url(#clip0_4995_176)"
     id="g26"
     transform="translate(0,-80.397723)">
    <path
       d="m 115.41,75.93 c 0,2.49 -1.58,4.06 -4.08,4.06 -2.5,0 -4.08,-1.56 -4.08,-4.06 V 37.07 c 0,-2.49 1.58,-4.05 4.08,-4.05 2.5,0 4.08,1.56 4.08,4.05 z"
       id="path1" />
    <path
       d="m 157.66,50.2 c 0,-6.56 -3.88,-10.62 -10.55,-10.62 -6.67,0 -10.47,4.05 -10.47,10.62 v 25.73 c 0,2.49 -1.58,4.06 -4.08,4.06 -2.5,0 -4.08,-1.56 -4.08,-4.06 V 37.07 c 0,-2.49 1.57,-4.05 4.08,-4.05 2.51,0 4.08,1.56 4.08,4.05 v 1.39 l 0.18,0.17 c 1.95,-2.33 5,-5.61 12.42,-5.61 4.83,0 9.82,1.9 13.52,7.77 3.62,-4.83 7.98,-7.77 15.11,-7.77 7.59,0 17.14,4.49 17.14,17.43 v 25.47 c 0,2.49 -1.58,4.06 -4.08,4.06 -2.5,0 -4.08,-1.56 -4.08,-4.06 V 50.19 c 0,-6.56 -3.88,-10.62 -10.56,-10.62 -6.68,0 -10.47,4.05 -10.47,10.62 v 25.73 c 0,2.49 -1.57,4.06 -4.08,4.06 -2.51,0 -4.08,-1.56 -4.08,-4.06 V 50.19 Z"
       id="path2" />
    <path
       d="m 208.44,37.07 c 0,-2.49 1.58,-4.05 4.08,-4.05 2.5,0 4.08,1.56 4.08,4.05 v 2.25 h 0.18 c 2.32,-4.14 6.68,-6.3 13.16,-6.3 13.34,0 21.02,11.31 21.02,23.48 0,12.17 -7.68,23.48 -21.02,23.48 -6.49,0 -11.02,-3.37 -13.16,-6.21 H 216.6 V 90.5 c 0,2.5 -1.57,4.05 -4.08,4.05 -2.51,0 -4.08,-1.56 -4.08,-4.05 z m 20.85,36.35 c 10.01,0 13.54,-9.15 13.54,-16.92 0,-7.77 -3.53,-16.92 -13.54,-16.92 -10.01,0 -13.52,9.15 -13.52,16.92 0,7.77 3.52,16.92 13.52,16.92 z"
       id="path3" />
    <path
       d="m 267.12,59.44 c 0,7.86 5.36,13.99 14.52,13.99 10.85,0 13.62,-6.22 16.68,-6.22 1.49,0 2.98,1.21 2.98,3.38 0,3.71 -10.11,9.4 -19.73,9.4 -15.76,0 -22.6,-11.31 -22.6,-23.48 0,-12.17 8.34,-23.48 22.14,-23.48 13.8,0 21.19,11.31 21.19,22.36 0,2.67 -1,4.05 -4.53,4.05 z m 27.04,-5.7 c 0,-6.56 -4.08,-14.16 -13.06,-14.16 -10.1,-0.35 -13.72,7.16 -13.98,14.16 z"
       id="path4" />
    <path
       d="m 312.39,37.07 c 0,-2.49 1.57,-4.05 4.08,-4.05 2.51,0 4.08,1.56 4.08,4.05 v 3.89 h 0.18 c 1.87,-3.54 6.4,-7.94 11.12,-7.94 2.88,0 4.54,1.72 4.54,3.89 0,2.17 -1.66,3.54 -5.1,4.14 -4.81,0.77 -10.74,4.14 -10.74,13.04 v 21.84 c 0,2.49 -1.58,4.06 -4.08,4.06 -2.5,0 -4.08,-1.56 -4.08,-4.06 z"
       id="path5" />
    <path
       d="m 347.97,17.48 c 2.79,0 5,2.08 5,4.67 0,2.59 -2.22,4.66 -5,4.66 -2.78,0 -5,-2.07 -5,-4.66 0,-2.59 2.23,-4.67 5,-4.67 z m 4.08,58.45 c 0,2.49 -1.56,4.06 -4.08,4.06 -2.52,0 -4.08,-1.56 -4.08,-4.06 V 37.07 c 0,-2.49 1.59,-4.05 4.08,-4.05 2.49,0 4.08,1.56 4.08,4.05 z"
       id="path6" />
    <path
       d="m 405.89,76.28 c 0,2.67 -2.23,3.71 -3.8,3.71 -1.67,0 -3.8,-1.04 -3.8,-3.71 v -3.2 h -0.18 c -3.54,4.66 -8.16,6.91 -13.45,6.91 -13.9,0 -21.68,-11.31 -21.68,-23.48 0,-12.17 7.77,-23.48 21.68,-23.48 5.66,0 9.65,2.24 13.45,6.13 h 0.18 v -2.42 c 0,-2.67 2.13,-3.71 3.8,-3.71 1.57,0 3.8,1.04 3.8,3.71 z m -21.23,-2.86 c 10.01,0 13.52,-9.15 13.52,-16.92 0,-7.77 -3.52,-16.92 -13.52,-16.92 -10,0 -13.52,9.15 -13.52,16.92 0,7.77 3.52,16.92 13.52,16.92 z"
       id="path7" />
    <path
       d="m 427.11,75.93 c 0,2.49 -1.56,4.06 -4.08,4.06 -2.52,0 -4.08,-1.56 -4.08,-4.06 V 16.88 c 0,-2.5 1.57,-4.05 4.08,-4.05 2.51,0 4.08,1.55 4.08,4.05 z"
       id="path8" />
    <path
       d="m 194.03,101.57 c 8.34,0 13.26,2.69 13.26,5.78 0,1.56 -1.4,3.2 -3.33,3.2 -3.15,0 -4.35,-2.41 -9.93,-2.41 -10.09,0 -14.09,9.15 -14.09,16.92 0,7.77 3.99,16.91 14.09,16.91 5.75,0 7.24,-2.59 9.83,-2.59 1.85,0 3.16,1.13 3.16,3.19 0,2.86 -4.54,5.97 -12.99,5.97 -15.01,0 -22.23,-11.31 -22.23,-23.48 0,-12.17 7.22,-23.49 22.23,-23.49 z"
       id="path9" />
    <path
       d="m 236.94,101.57 c 13.91,0 21.68,11.32 21.68,23.49 0,12.17 -7.77,23.48 -21.68,23.48 -13.91,0 -21.68,-11.31 -21.68,-23.48 0,-12.17 7.79,-23.49 21.68,-23.49 z m 0,40.41 c 10.01,0 13.53,-9.15 13.53,-16.91 0,-7.76 -3.52,-16.92 -13.53,-16.92 -10.01,0 -13.52,9.15 -13.52,16.92 0,7.77 3.52,16.91 13.52,16.91 z"
       id="path10" />
    <path
       d="m 277.71,144.48 c 0,2.51 -1.56,4.07 -4.08,4.07 -2.52,0 -4.08,-1.56 -4.08,-4.07 V 92.55 c 0,-2.5 1.59,-4.06 4.08,-4.06 2.49,0 4.08,1.56 4.08,4.06 z"
       id="path11" />
    <path
       d="m 298.94,144.48 c 0,2.51 -1.58,4.07 -4.08,4.07 -2.5,0 -4.08,-1.56 -4.08,-4.07 V 92.55 c 0,-2.5 1.59,-4.06 4.08,-4.06 2.49,0 4.08,1.56 4.08,4.06 z"
       id="path12" />
    <path
       d="m 317.19,127.99 c 0,7.86 5.37,13.99 14.55,13.99 10.84,0 13.61,-6.21 16.66,-6.21 1.49,0 2.98,1.21 2.98,3.36 0,3.72 -10.11,9.42 -19.73,9.42 -15.76,0 -22.6,-11.31 -22.6,-23.48 0,-12.17 8.34,-23.49 22.14,-23.49 13.8,0 21.21,11.32 21.21,22.36 0,2.68 -1.01,4.06 -4.53,4.06 h -30.68 z m 27.06,-5.7 c 0,-6.55 -4.08,-14.15 -13.06,-14.15 -10.11,-0.34 -13.72,7.16 -14,14.15 z"
       id="path13" />
    <path
       d="m 402.91,144.74 c 0,13.64 -8.9,21.93 -22.25,21.93 -8.42,0 -18.91,-4.49 -18.91,-8.37 0,-1.56 0.85,-3.54 3.44,-3.54 3.71,0 7.33,5.36 16.13,5.36 10.39,0 13.43,-7.6 13.43,-14.17 v -3.97 h -0.18 c -2.52,3.97 -6.96,6.57 -12.52,6.57 -13.9,0 -21.68,-11.31 -21.68,-23.48 0,-12.17 7.78,-23.49 21.68,-23.49 5.28,0 10.39,3.03 12.52,5.78 h 0.18 v -2.07 c 0,-2.67 2.13,-3.72 4.37,-3.72 1.56,0 3.79,1.05 3.79,3.72 z m -20.86,-2.76 c 10,0 13.53,-9.15 13.53,-16.91 0,-7.76 -3.53,-16.92 -13.53,-16.92 -10,0 -13.52,9.15 -13.52,16.92 0,7.77 3.52,16.91 13.52,16.91 z"
       id="path14" />
    <path
       d="m 421.54,127.99 c 0,7.86 5.36,13.99 14.55,13.99 10.83,0 13.62,-6.21 16.68,-6.21 1.47,0 2.95,1.21 2.95,3.36 0,3.72 -10.09,9.42 -19.73,9.42 -15.76,0 -22.61,-11.31 -22.61,-23.48 0,-12.17 8.34,-23.49 22.14,-23.49 13.8,0 21.22,11.32 21.22,22.36 0,2.68 -1.03,4.06 -4.54,4.06 h -30.66 z m 27.04,-5.7 c 0,-6.55 -4.08,-14.15 -13.06,-14.15 -10.11,-0.34 -13.71,7.16 -13.98,14.15 h 27.05 z"
       id="path15" />
    <path
       d="m 106.41,168.98 c 0,-4.05 2.64,-6.76 6.34,-6.76 3.7,0 6.34,2.71 6.34,6.76 v 21.76 c 0,5.08 3.97,7.88 8.2,7.88 4.23,0 8.17,-2.8 8.17,-7.88 v -21.76 c 0,-4.05 2.64,-6.76 6.35,-6.76 3.71,0 6.34,2.71 6.34,6.76 v 22.01 c 0,10.84 -7.49,17.78 -20.86,17.78 -13.37,0 -20.88,-6.94 -20.88,-17.78 z"
       id="path16" />
    <path
       d="m 155.84,168.98 c 0,-4.05 2.64,-6.76 6.34,-6.76 3.26,0 5.37,1.7 5.81,4.49 2.47,-3.3 6.25,-5 12.24,-5 9.94,0 17.35,6.1 17.35,16.43 v 23.35 c 0,4.07 -2.64,6.77 -6.34,6.77 -3.7,0 -6.34,-2.7 -6.34,-6.77 v -21.24 c 0,-5.66 -3.71,-8.37 -8.29,-8.37 -5.19,0 -8.1,3.63 -8.1,8.37 v 21.24 c 0,4.07 -2.63,6.77 -6.34,6.77 -3.71,0 -6.34,-2.7 -6.34,-6.77 v -32.5 z"
       id="path17" />
    <path
       d="m 205.09,168.98 c 0,-4.05 2.64,-6.76 6.33,-6.76 3.69,0 6.34,2.71 6.34,6.76 v 32.5 c 0,4.07 -2.65,6.77 -6.34,6.77 -3.69,0 -6.33,-2.7 -6.33,-6.77 z"
       id="path18" />
    <path
       d="m 268.85,185.32 c 0,12.7 -9.06,23.44 -22.7,23.44 -13.64,0 -22.71,-10.75 -22.71,-23.44 0,-12.69 9.33,-23.62 22.71,-23.62 13.38,0 22.7,11.26 22.7,23.62 z m -32.73,0 c 0,5.84 3.16,12.28 10.03,12.28 6.87,0 10.03,-6.44 10.03,-12.28 0,-5.84 -3.08,-12.44 -10.03,-12.44 -6.95,0 -10.03,6.6 -10.03,12.44 z"
       id="path19" />
    <path
       d="m 274.68,168.98 c 0,-4.05 2.64,-6.76 6.34,-6.76 3.26,0 5.38,1.7 5.82,4.49 2.48,-3.3 6.25,-5 12.23,-5 9.94,0 17.35,6.1 17.35,16.43 v 23.35 c 0,4.07 -2.64,6.77 -6.34,6.77 -3.7,0 -6.34,-2.7 -6.34,-6.77 v -21.24 c 0,-5.66 -3.7,-8.37 -8.26,-8.37 -5.2,0 -8.11,3.63 -8.11,8.37 v 21.24 c 0,4.07 -2.64,6.77 -6.34,6.77 -3.7,0 -6.34,-2.7 -6.34,-6.77 v -32.5 z"
       id="path20" />
    <path
       d="m 77.3099,135.26 c 0,9.56 -7.76,17.32 -17.31,17.32 -9.55,0 -17.32,-7.76 -17.32,-17.32 0,-9.56 7.75,-17.31 17.32,-17.31 9.57,0 17.31,7.74 17.31,17.31 z"
       id="path21" />
    <path
       d="m 137.04,120.89 c 0,12.44 -10.08,22.49 -22.5,22.49 -12.42,0 -22.5,-10.05 -22.5,-22.49 0,-12.44 10.08,-22.5 22.5,-22.5 12.42,0 22.5,10.07 22.5,22.5 z"
       id="path22" />
    <path
       d="m 117.69,19.33 c 0,3.61 -2.93,6.53 -6.53,6.53 -3.6,0 -6.54,-2.92 -6.54,-6.53 0,-3.61 2.93,-6.54 6.54,-6.54 3.61,0 6.53,2.92 6.53,6.54 z"
       id="path23" />
    <path
       d="m 64.3999,8.61 c 0,4.75 -3.85,8.6 -8.61,8.6 -4.76,0 -8.61,-3.85 -8.61,-8.6 0,-4.75 3.85,-8.61 8.61,-8.61 4.76,0 8.61,3.85 8.61,8.61 z"
       id="path24" />
    <path
       d="m 24.1901,45.21 c 0,6.24 -5.06,11.29 -11.29,11.29 -6.23001,0 -11.31001,-5.04 -11.31001,-11.29 0,-6.25 5.05,-11.3 11.31001,-11.3 6.26,0 11.29,5.06 11.29,11.3 z"
       id="path25" />
    <path
       d="m 29.53,101.57 c 0,8.15 -6.61,14.76 -14.75,14.76 C 6.64,116.33 0,109.72 0,101.57 0,93.42 6.61,86.83 14.77,86.83 c 8.16,0 14.75,6.59 14.75,14.74 z"
       id="path26" />
  </g>
  <defs
     id="defs26">
    <clipPath
       id="clip0_4995_176">
      <rect
         width="456.73999"
         height="208.75999"
         fill="#ffffff"
         id="rect26"
         x="0"
         y="0" />
    </clipPath>
  </defs>
</svg>
